<?xml version="1.0" encoding="UTF-8"?> <svg xmlns="http://www.w3.org/2000/svg" viewBox="0 0 318.79 108.01"><defs><style>.cls-1{fill:#02abca;}</style></defs><g id="Layer_2" data-name="Layer 2"><g id="Layer_1-2" data-name="Layer 1"><path d="M23.43,23.13c5.95,0,13.09.49,16.3.85h.56c.73,0,1.57-.17,1.57-1.48V21.37a2.15,2.15,0,0,0-2.1-1.95l-.4-.05a127.25,127.25,0,0,0-15.93-.9C14.68,18.47,0,22.32,0,48.12V60.55C0,86.34,14.68,90.2,23.43,90.2a127.25,127.25,0,0,0,15.93-.9l.4,0a2.15,2.15,0,0,0,2.1-2V86.17c0-1.31-.84-1.48-1.57-1.48h-.6c-3.17.36-10.31.85-16.26.85-12,0-18.58-8.87-18.58-25V48.12c0-16.12,6.6-25,18.58-25"></path><path d="M68.29,37.88a96.62,96.62,0,0,0-13.42.85c-1.06.14-2.47.5-2.47,2v.57c0,1.21,1.07,1.76,2.14,1.76L56.31,43a92.29,92.29,0,0,1,12-.7c8.61,0,11.52,3.36,11.52,13.31v3h-6.9C56.35,58.6,49.29,63,49.29,73.46v1.22c0,4.67,1.44,15.52,14.76,15.52,4.82,0,10-1.5,15.67-4.57V87.4A2.23,2.23,0,0,0,82,89.63h.47a2.23,2.23,0,0,0,2.23-2.23V55.56c0-8.23-1.86-17.68-16.36-17.68M54.14,73.46C54.14,65.62,58.87,63,72.91,63h6.9V81.16c-6.28,3.35-10.71,4.66-15.76,4.66-6.58,0-9.91-3.75-9.91-11.14Z"></path><path d="M100.81,18.94h-1a2,2,0,0,0-2,2.14V87.49a2,2,0,0,0,2,2.14h1a2,2,0,0,0,2-2.14V21.08a2,2,0,0,0-2-2.14"></path><path d="M100.81,18.94h-1a2,2,0,0,0-2,2.14V87.49a2,2,0,0,0,2,2.14h1a2,2,0,0,0,2-2.14V21.08a2,2,0,0,0-2-2.14"></path><path d="M190.54,87.11,171.23,23.24a6.31,6.31,0,0,0-6.36-4.77,6.41,6.41,0,0,0-6.46,4.87L139.1,87.1a2.93,2.93,0,0,0-.11,1,1.7,1.7,0,0,0,1.76,1.86H142a2.2,2.2,0,0,0,1.84-1.47l7.65-25.28h26.61l7.83,25.27a1.94,1.94,0,0,0,1.85,1.48h1.13a1.66,1.66,0,0,0,1.85-1.76,3.66,3.66,0,0,0-.2-1M164.87,22.94c.91,0,1.49.52,1.83,1.63l10.13,33.75h-24L163,24.47c.26-1,.64-1.53,1.83-1.53"></path><path d="M242.91,37.88a36.54,36.54,0,0,0-15.08,3.78c-4.45-5.09-12.46-5-23,.06V40.58a2.07,2.07,0,0,0-2-2.23H202a2.07,2.07,0,0,0-2,2.23V87.49c0,1.26.72,2.14,1.76,2.14h1.32c1,0,1.76-.88,1.76-2.14V46.08c5.36-2.54,9.77-3.83,13.12-3.83,5.73,0,8.51,3.65,8.51,11.14v34.1c0,1.32.64,2.14,1.67,2.14h1.41c1.09,0,1.76-.82,1.76-2.14V53.39A23.22,23.22,0,0,0,230,45.28a29.8,29.8,0,0,1,12.28-3c7.38,0,10.67,3.55,10.67,11.52V87.49a2,2,0,0,0,2,2.14h.94a2,2,0,0,0,1.95-2.14V53.77c0-10.1-5.41-15.89-14.85-15.89"></path><path d="M287.45,37.88a87.71,87.71,0,0,0-15.91,1.8,1.83,1.83,0,0,0-1.68,2.13v64.05a2,2,0,0,0,1.95,2.14h.95a2,2,0,0,0,1.95-2.14v-17a71.13,71.13,0,0,0,12.74,1.33c12.48,0,18.81-7.7,18.81-22.87V61.12c0-15-6.68-23.24-18.81-23.24m0,47.94a76.78,76.78,0,0,1-12.74-1.16V43.42a85.87,85.87,0,0,1,12.74-1.17c9.66,0,14,5.82,14,18.87v6.21c0,12.79-4.31,18.49-14,18.49"></path><polygon class="cls-1" points="140.83 0 111.89 108 116.96 108 145.9 0 140.83 0"></polygon><path d="M313.77,47.31a5,5,0,1,1,5-5,5,5,0,0,1-5,5m0-9.17a4.16,4.16,0,1,0,4.17,4.17,4.17,4.17,0,0,0-4.17-4.17M316,45.31h-.93a.24.24,0,0,1-.2-.15L313.59,43a.28.28,0,0,0-.18-.09h-.57v2.14a.24.24,0,0,1-.22.24h-.83a.24.24,0,0,1-.22-.24v-5.4c0-.33.11-.46.4-.49s1.07-.07,1.53-.07c1.54,0,2.47.47,2.47,1.91v.1a1.55,1.55,0,0,1-1.13,1.61L316.15,45a.33.33,0,0,1,0,.15.19.19,0,0,1-.2.2M314.75,41c0-.61-.34-.82-1.16-.82h-.78v1.74l.78,0c.84,0,1.16-.27,1.16-.84Z"></path></g></g></svg> 